<?xml version="1.0" encoding="UTF-8"?>
<svg xmlns="http://www.w3.org/2000/svg" xmlns:xlink="http://www.w3.org/1999/xlink" width="500pt" height="500pt" viewBox="0 0 500 500" version="1.1">
<g id="surface9330133">
<path style=" stroke:none;fill-rule:nonzero;fill:rgb(1.568627%,70.196078%,5.882353%);fill-opacity:1;" d="M 250 20 C 123.09375 20 20 123.09375 20 250 C 20 376.90625 123.09375 480 250 480 C 376.90625 480 480 376.90625 480 250 C 480 123.09375 376.90625 20 250 20 Z M 250 40 C 366.097656 40 460 133.902344 460 250 C 460 366.097656 366.097656 460 250 460 C 133.902344 460 40 366.097656 40 250 C 40 133.902344 133.902344 40 250 40 Z M 160 150 L 160 216.699219 C 149.441406 206.394531 135.503906 200 120 200 C 86.441406 200 60 229.710938 60 265 C 60 300.289062 86.441406 330 120 330 C 135.503906 330 149.441406 323.605469 160 313.300781 L 160 330 L 180 330 L 180 150 Z M 250 150 C 250 150 237.914062 149.863281 225.527344 156.054688 C 213.140625 162.246094 200 176.667969 200 200 L 220 200 C 220 183.332031 226.859375 177.753906 234.472656 173.945312 C 242.085938 170.136719 250 170 250 170 C 250 170 257.914062 170.136719 265.527344 173.945312 C 273.140625 177.753906 280 183.332031 280 200 C 280 209.832031 276.378906 217.199219 269.84375 224.960938 C 263.308594 232.722656 253.789062 240.292969 243.691406 248.496094 C 223.496094 264.90625 200 285.554688 200 320 L 200 330 L 300 330 L 300 310 L 221.679688 310 C 225.53125 290.691406 239.371094 277.765625 256.308594 264.003906 C 266.210938 255.957031 276.691406 247.902344 285.15625 237.851562 C 293.621094 227.800781 300 215.167969 300 200 C 300 176.667969 286.859375 162.246094 274.472656 156.054688 C 262.085938 149.863281 250 150 250 150 Z M 320 150 L 320 330 L 340 330 L 340 260 C 340 253.332031 343.996094 242.394531 351.269531 234.082031 C 358.542969 225.769531 368.332031 220 380 220 C 391.667969 220 394.746094 224.359375 397.304688 229.472656 C 399.863281 234.585938 400 240 400 240 L 400 330 L 420 330 L 420 240 C 420 240 420.136719 230.414062 415.195312 220.527344 C 410.253906 210.640625 398.332031 200 380 200 C 363.792969 200 350.039062 207.222656 340 216.972656 L 340 150 Z M 120 220 C 141.667969 220 160 239.539062 160 265 C 160 290.460938 141.667969 310 120 310 C 98.332031 310 80 290.460938 80 265 C 80 239.539062 98.332031 220 120 220 Z M 120 220 "/>
</g>
</svg>
