<?xml version="1.0" standalone="no"?>
<!DOCTYPE svg PUBLIC "-//W3C//DTD SVG 20010904//EN"
 "http://www.w3.org/TR/2001/REC-SVG-20010904/DTD/svg10.dtd">
<svg version="1.0" xmlns="http://www.w3.org/2000/svg"
 width="275.000000pt" height="183.000000pt" viewBox="0 0 275.000000 183.000000"
 preserveAspectRatio="xMidYMid meet">
<metadata>
Created by potrace 1.15, written by Peter Selinger 2001-2017
</metadata>
<g transform="translate(0.000000,183.000000) scale(0.100000,-0.100000)"
fill="#000000" stroke="none">
<path d="M0 915 l0 -915 1375 0 1375 0 0 915 0 915 -1375 0 -1375 0 0 -915z
m1771 822 c22 -15 38 -36 45 -62 16 -52 18 -165 3 -165 -7 0 -9 -10 -5 -25 4
-14 3 -31 -1 -38 -4 -7 -9 -21 -10 -32 -2 -11 -7 -33 -12 -50 -7 -21 -10 -24
-10 -10 -2 19 -2 19 -12 1 -9 -14 -8 -21 2 -28 11 -7 11 -11 2 -15 -7 -2 -13
-12 -13 -21 -1 -9 -9 -32 -19 -51 l-18 -33 -1 43 c0 42 -27 138 -41 149 -29
23 -107 160 -115 202 -9 50 18 115 58 139 43 26 105 24 147 -4z m-636 -123
c40 -26 71 -99 79 -184 9 -100 23 -184 41 -245 8 -27 21 -75 30 -105 25 -83
55 -140 99 -188 38 -41 43 -43 88 -40 46 3 47 2 43 -22 -4 -21 -3 -20 9 6 8
17 22 34 31 38 14 5 14 2 -2 -22 -10 -15 -23 -36 -29 -47 -7 -11 -20 -19 -30
-17 -13 2 -15 0 -7 -6 10 -6 9 -13 -3 -30 -15 -21 -42 -32 -29 -12 3 6 1 10
-5 10 -7 0 -10 -7 -6 -15 6 -16 -24 -37 -62 -42 -14 -3 -21 1 -20 9 2 8 -5 12
-17 10 -45 -6 -122 48 -190 133 -63 77 -160 247 -180 315 -4 14 -13 39 -20 55
-33 74 -48 136 -52 220 -4 81 -2 94 19 130 31 53 79 78 140 71 26 -3 59 -13
73 -22z m-970 -1256 c9 -29 26 -79 37 -111 20 -55 23 -58 52 -55 28 3 33 9 59
78 16 41 33 90 38 108 9 29 13 32 51 32 34 0 39 -3 33 -17 -3 -10 -17 -49 -30
-88 -36 -108 -57 -159 -74 -172 -33 -26 -171 -12 -171 17 0 6 -9 29 -19 53
-23 50 -71 184 -71 198 0 5 17 9 39 9 38 0 39 -1 56 -52z m385 -94 l0 -145
-37 3 -38 3 -1 135 c0 74 1 138 3 143 3 4 20 7 39 7 l34 0 0 -146z m314 132
c79 -33 89 -208 15 -260 -19 -13 -49 -16 -146 -16 l-123 0 0 145 0 145 110 0
c72 0 122 -5 144 -14z m396 -16 l0 -30 -94 0 c-108 0 -126 -5 -126 -31 0 -17
9 -19 105 -19 l105 0 0 -30 0 -30 -105 0 c-104 0 -105 0 -105 -24 0 -32 15
-36 126 -36 l94 0 0 -30 0 -30 -118 0 c-110 0 -120 2 -140 22 -60 65 -55 207
9 252 18 12 48 16 136 16 l113 0 0 -30z m295 16 c44 -19 65 -61 65 -133 0 -67
-25 -118 -66 -133 -34 -13 -164 -13 -203 1 -43 15 -65 60 -65 134 0 76 22 121
67 134 50 14 164 13 202 -3z m385 -16 l0 -30 -87 0 c-111 -1 -122 -8 -124 -85
-3 -77 8 -85 123 -85 l88 0 0 -30 0 -30 -100 0 c-108 0 -135 8 -165 48 -16 21
-20 43 -20 97 0 54 4 76 20 97 28 38 56 46 168 47 l97 1 0 -30z m326 -14 c30
-35 34 -46 34 -97 0 -66 -25 -119 -66 -137 -37 -17 -194 -15 -218 3 -59 45
-76 154 -36 221 28 44 59 54 164 51 l88 -2 34 -39z m332 33 c53 -18 66 -51 70
-171 l4 -108 -41 0 -41 0 0 93 c0 121 -7 132 -90 132 -83 0 -90 -11 -90 -132
l0 -93 -40 0 -40 0 0 90 c0 111 19 166 64 186 37 16 161 18 204 3z"/>
<path d="M688 344 c-5 -4 -8 -43 -8 -86 l0 -78 63 0 c87 0 107 15 107 84 0 37
-5 58 -16 67 -18 15 -135 25 -146 13z"/>
<path d="M1376 328 c-23 -32 -21 -110 2 -131 22 -20 131 -24 150 -5 15 15 16
112 2 139 -9 16 -22 19 -75 19 -55 0 -66 -3 -79 -22z"/>
<path d="M2058 339 c-14 -8 -18 -24 -18 -72 0 -36 5 -68 12 -75 7 -7 40 -12
80 -12 79 0 88 9 88 89 0 67 -16 81 -88 81 -31 0 -65 -5 -74 -11z"/>
</g>
</svg>
